# This file uses centimeters as units for non-parametric coordinates.

mtllib Flowres_Left.mtl
g default
v -15.726397 43.272400 194.776779
v -15.726395 1.593262 194.776779
v -57.187607 43.272461 41.372787
v -57.187607 2.658569 41.372787
v -46.150780 43.272423 61.408947
v -46.150780 2.658543 61.408947
v -40.041832 43.272423 84.313759
v -40.041832 2.658543 84.313759
v -32.462418 43.272423 112.731926
v -32.462414 2.658543 112.731926
v -23.520073 43.272423 146.260239
v -23.520073 2.658543 146.260239
vt 0.913306 0.994042
vt 0.647769 0.994042
vt 0.647769 0.861765
vt 0.913306 0.861765
vt 0.647769 0.713762
vt 0.913306 0.713762
vt 0.647769 0.529857
vt 0.913306 0.529857
vt 0.647769 0.313870
vt 0.913306 0.313870
vt 0.647769 0.005779
vt 0.913306 0.005779
vn 0.875903 0.000000 -0.482487
vn 0.875903 0.000000 -0.482487
vn 0.928705 0.000000 -0.370820
vn 0.928705 0.000000 -0.370820
vn 0.966224 0.000000 -0.257702
vn 0.966224 0.000000 -0.257702
vn 0.966225 0.000000 -0.257702
vn 0.966224 0.000000 -0.257702
vn 0.979886 0.000000 -0.199556
vn 0.979953 0.000000 -0.199227
vn 0.987342 0.000000 -0.158606
vn 0.987342 0.000000 -0.158606
s 1
g L_Back Flowers_LEFT
usemtl initialShadingGroup
f 4/1/1 3/2/2 5/3/3 6/4/4
f 5/3/3 7/5/5 8/6/6 6/4/4
f 7/5/5 9/7/7 10/8/8 8/6/6
f 9/7/7 11/9/9 12/10/10 10/8/8
f 11/9/9 1/11/11 2/12/12 12/10/10
g default
v 39.754478 43.272400 137.886444
v 39.754482 1.593262 137.886444
v -31.658161 43.272400 49.318596
v -31.658161 2.658569 49.318596
v -16.709358 43.272423 60.886486
v -16.709358 2.658540 60.886486
v -6.128353 43.272423 74.110588
v -6.128353 2.658540 74.110588
v 6.999579 43.272423 90.517822
v 6.999579 2.658542 90.517822
v 22.488174 43.272423 109.875397
v 22.488174 2.658543 109.875397
vt 0.352553 0.994042
vt 0.088758 0.994042
vt 0.088758 0.911953
vt 0.352553 0.911953
vt 0.088758 0.806626
vt 0.352553 0.806626
vt 0.088758 0.683930
vt 0.352553 0.683930
vt 0.088758 0.527528
vt 0.352553 0.527528
vt 0.088758 0.329065
vt 0.352553 0.329065
vn 0.611995 0.000000 -0.790861
vn 0.611996 0.000000 -0.790861
vn 0.696665 0.000000 -0.717397
vn 0.696665 0.000000 -0.717397
vn 0.780819 0.000000 -0.624757
vn 0.780819 0.000000 -0.624757
vn 0.780819 0.000000 -0.624757
vn 0.780819 0.000000 -0.624757
vn 0.822729 0.000000 -0.568433
vn 0.823076 0.000000 -0.567931
vn 0.851268 0.000000 -0.524731
vn 0.851268 0.000000 -0.524731
s 1
g Flowers_LEFT L_Front
usemtl initialShadingGroup
f 16/13/13 15/14/14 17/15/15 18/16/16
f 17/15/15 19/17/17 20/18/18 18/16/16
f 19/17/17 21/19/19 22/20/20 20/18/18
f 21/19/19 23/21/21 24/22/22 22/20/20
f 23/21/21 13/23/23 14/24/24 24/22/22
g default
v 12.657063 43.272400 171.488861
v 12.657063 1.593262 171.488861
v -45.751450 43.272400 46.235023
v -45.751453 2.658569 46.235020
v -32.501125 43.272423 62.594486
v -32.501125 2.658543 62.594486
v -23.861773 43.272423 81.296188
v -23.861773 2.658543 81.296188
v -13.142862 43.272423 104.499512
v -13.142862 2.658542 104.499512
v -0.496481 43.272423 131.875259
v -0.496481 2.658542 131.875259
vt 0.632316 0.992542
vt 0.368431 0.992542
vt 0.368431 0.871825
vt 0.632316 0.871825
vt 0.368431 0.740154
vt 0.632316 0.740154
vt 0.368431 0.578230
vt 0.632316 0.578162
vt 0.368431 0.394869
vt 0.632316 0.394869
vt 0.368431 0.135120
vt 0.632316 0.135120
vn 0.777084 0.000000 -0.629398
vn 0.777084 0.000000 -0.629398
vn 0.848254 0.000000 -0.529589
vn 0.848254 0.000000 -0.529589
vn 0.907815 0.000000 -0.419370
vn 0.907815 0.000000 -0.419370
vn 0.907815 0.000000 -0.419370
vn 0.907815 0.000000 -0.419370
vn 0.933311 0.000000 -0.359069
vn 0.933469 0.000000 -0.358660
vn 0.949049 0.000000 -0.315128
vn 0.949049 0.000000 -0.315128
s 1
g Flowers_LEFT L_Mid
usemtl initialShadingGroup
f 28/25/25 27/26/26 29/27/27 30/28/28
f 29/27/27 31/29/29 32/30/30 30/28/28
f 31/29/29 33/31/31 34/32/32 32/30/30
f 33/31/31 35/33/33 36/34/34 34/32/32
f 35/33/33 25/35/35 26/36/36 36/34/34
